# AST/ASF file generated using VICON BodyLanguage
# -----------------------------------------------
:version 1.10
:name VICON
:units
  mass 1.0
  length 0.45
  angle deg
:documentation
   .ast/.asf automatically generated from VICON data using
   VICON BodyBuilder and BodyLanguage model FoxedUp or BRILLIANT.MOD
:root
   order TX TY TZ RX RY RZ
   axis XYZ
   position 0 0 0  
   orientation 0 0 0 
:bonedata
  begin
     id 1 
     name lhipjoint
     direction 0.606768 -0.715223 0.346827 
     length 2.41543 
     axis 0 0 0  XYZ
  end
  begin
     id 2 
     name lfemur
     direction 0.34202 -0.939693 0  
     length 7.2778  
     axis 0 0 20  XYZ
    dof rx ry rz
    limits (-160.0 20.0)
           (-70.0 70.0)
           (-60.0 70.0)
  end
  begin
     id 3 
     name ltibia
     direction 0.34202 -0.939693 0   
     length 7.61811   
     axis 0 0 20   XYZ
    dof rx
    limits (-10.0 170.0)
  end
  begin
     id 4 
     name lfoot
     direction 0.0823924 -0.226371 0.97055   
     length 2.33618   
     axis -90 7.62852e-016 20   XYZ
    dof rx rz
    limits (-45.0 90.0)
           (-70.0 20.0)
  end
  begin
     id 5 
     name ltoes
     direction 1.53554e-011 -4.21934e-011 1   
     length 1.17015   
     axis -90 7.62852e-016 20   XYZ
    dof rx
    limits (-90.0 20.0)
  end
  begin
     id 6 
     name rhipjoint
     direction -0.6077 -0.714582 0.346516   
     length 2.4176  
     axis 0 0 0  XYZ 
  end
  begin
     id 7 
     name rfemur
     direction -0.34202 -0.939693 0   
     length 7.28127   
     axis 0 0 -20   XYZ
    dof rx ry rz
    limits (-160.0 20.0)
           (-70.0 70.0)
           (-70.0 60.0)
  end
  begin
     id 8 
     name rtibia
     direction -0.34202 -0.939693 0   
     length 7.77648   
     axis 0 0 -20   XYZ
    dof rx
    limits (-10.0 170.0)
 end
 begin
     id 9 
     name rfoot
     direction -0.0809463 -0.222398 0.97159   
     length 2.37533  
     axis -90 -7.62852e-016 -20   XYZ
    dof rx rz
    limits (-45.0 90.0)
           (-20.0 70.0)
  end
  begin
     id 10 
     name rtoes
     direction -1.53568e-011 -4.21714e-011 1   
     length 1.18972   
     axis -90 -7.62852e-016 -20   XYZ
    dof rx
    limits (-90.0 20.0)
  end
  begin
     id 11 
     name lowerback
     direction 0.010968 0.991932 -0.126297   
     length 2.21698   
     axis 0 0 0   XYZ
    dof rx ry rz
    limits (-20.0 45.0)
           (-30.0 30.0)
           (-30.0 30.0)
  end
  begin
     id 12 
     name upperback
     direction 0.0167007 0.997503 -0.0686276   
     length 2.22371   
     axis 0 0 0   XYZ
    dof rx ry rz
    limits (-20.0 45.0)
           (-30.0 30.0)
           (-30.0 30.0)
  end
  begin
     id 13 
     name thorax
     direction 0.0111721 0.999885 -0.0102878   
     length 2.25242   
     axis 0 0 0   XYZ
    dof rx ry rz
    limits (-20.0 45.0)
           (-30.0 30.0)
           (-30.0 30.0)
  end
  begin
     id 14 
     name lowerneck
     direction -0.0120265 0.990428 0.137508   
     length 1.57674   
     axis 0 0 0   XYZ
    dof rx ry rz
    limits (-20.0 45.0)
           (-30.0 30.0)
           (-30.0 30.0)
  end
  begin
     id 15 
     name upperneck
     direction 0.0175669 0.998907 0.0433089   
     length 1.5618   
     axis 0 0 0   XYZ
    dof rx ry rz
    limits (-20.0 45.0)
           (-30.0 30.0)
           (-30.0 30.0)
  end
  begin
     id 16
     name head
     direction 0.00754609 0.99997 0.00185367  
     length 1.60579  
     axis 0 0 0   XYZ
    dof rx ry rz
    limits (-20.0 45.0)
           (-30.0 30.0)
           (-30.0 30.0)
  end
  begin
     id 17 
     name lclavicle
     direction 0.885866 0.429166 -0.176231  
     length 3.44967  
     axis 0 0 0   XYZ
    dof ry rz
    limits (-20.0 10.0)
           (0.0 20.0)
  end
  begin
     id 18 
     name lhumerus
     direction 1 -4.48973e-011 -1.90255e-027   
     length 5.20607   
     axis 180 -30 -90   XYZ
    dof rx ry rz
    limits (-60.0 90.0)
           (-90.0 90.0)
           (-90.0 90.0)
  end
  begin
     id 19
     name lradius
     direction 1 -4.48956e-011 9.87925e-027   
     length 3.39961   
     axis 180 -30 -90   XYZ
    dof rx
    limits (-10.0 170.0)
  end
  begin
     id 20
     name lwrist
     direction 1 -4.48985e-011 1.73247e-026   
     length 1.6998   
     axis -9.60847e-015 90 90   XYZ
    dof ry
    limits (-180.0 0.0)
 end
  begin
     id 21 
     name lhand
     direction 1 -4.48798e-011 3.46119e-026   
     length 0.519693   
     axis -2.21073e-014 90 90   XYZ
    dof rx rz
    limits (-90.0 90.0)
           (-45.0 45.0)
  end
  begin
     id 22 
     name lfingers
     direction 1 -4.48938e-011 6.92797e-026   
     length 0.41899   
     axis -4.42155e-014 90 90   XYZ
    dof rx
    limits (0.0 90.0)
  end
  begin
     id 23
     name lthumb
     direction 0.707107 -6.34952e-011 0.707107   
     length 0.601588   
     axis -90 45 6.0103e-014   XYZ
    dof rx rz
    limits (-45.0 45.0)
           (-45.0 45.0)
  end
  begin
     id 24 
     name rclavicle
     direction -0.866736 0.456792 -0.200276   
     length 3.45032  
     axis 0 0 0   XYZ 
    dof ry rz
    limits (-10.0 20.0)
           (-20.0 0.0)
  end
  begin
     id 25 
     name rhumerus
     direction -1 -4.4897e-011 8.65094e-028  
     length 5.32214   
     axis 180 30 90   XYZ
    dof rx ry rz
    limits (-90.0 60.0)
           (-90.0 90.0)
           (-90.0 90.0)
  end
  begin
     id 26 
     name rradius
     direction -1 -4.48987e-011 1.08427e-026   
     length 3.51208   
     axis 180 30 90   XYZ
    dof rx
    limits (-10.0 170.0)
  end
  begin
     id 27 
     name rwrist
     direction -1 -4.48961e-011 1.73222e-026   
     length 1.75604   
     axis -9.60847e-015 -90 -90   XYZ
    dof ry
    limits (-180.0 0.0)
  end
  begin
     id 28
     name rhand
     direction -1 -4.48895e-011 3.46314e-026   
     length 0.586681   
     axis -2.21073e-014 -90 -90   XYZ
    dof rx rz
    limits (-90.0 90.0)
           (-45.0 45.0)
  end
  begin
     id 29
     name rfingers
     direction -1 -4.48968e-011 6.92916e-026   
     length 0.472997   
     axis -4.42155e-014 -90 -90   XYZ
    dof rx
    limits (0.0 90.0)
  end
  begin
     id 30
     name rthumb
     direction -0.707107 -6.34848e-011 0.707107   
     length 0.679133   
     axis -90 -45 -6.0103e-014   XYZ
    dof rx rz
    limits (-45.0 45.0)
           (-45.0 45.0)
  end
:hierarchy
  begin
    root lhipjoint rhipjoint lowerback
    lhipjoint lfemur
    lfemur ltibia
    ltibia lfoot
    lfoot ltoes
    rhipjoint rfemur
    rfemur rtibia
    rtibia rfoot
    rfoot rtoes
    lowerback upperback
    upperback thorax
    thorax lowerneck lclavicle rclavicle
    lowerneck upperneck
    upperneck head
    lclavicle lhumerus
    lhumerus lradius
    lradius lwrist
    lwrist lhand lthumb
    lhand lfingers
    rclavicle rhumerus
    rhumerus rradius
    rradius rwrist
    rwrist rhand rthumb
    rhand rfingers
  end

#!OML:ASF H:\Dans Jumps\Project 1\Capture day 1\Session 1\subject.ASF
:FULLY-SPECIFIED
:DEGREES
21
root 0.534814 17.4448 -14.8515 7.24311 -0.9606 -1.85684
lowerback 1.73884 -0.716009 0.464745
upperback 4.57339 -1.01496 1.85696
thorax 3.75692 -0.528132 1.63658
lowerneck -11.8866 0.74947 -1.52865
upperneck 30.4267 1.36766 0.21858
head 11.9174 0.456313 0.53053
rclavicle -6.95746e-016 1.98785e-015
rhumerus -26.2794 -14.1532 -79.1002
rradius 25.8559
rwrist 28.5707
rhand -18.8817 -26.642
rfingers 7.12502
rthumb 7.41936 -56.4919
lclavicle -6.95746e-016 1.98785e-015
lhumerus -21.3805 1.31956 87.5155
lradius 18.3193
lwrist 5.85189
lhand -25.6664 -2.69469
lfingers 7.12502
lthumb 0.867973 27.2833
rfemur -19.6212 -3.73806 20.535
rtibia 27.4881
rfoot -13.9315 -0.369778
rtoes 12.8991
lfemur -18.7778 8.5907 -18.2252
ltibia 26.0482
lfoot -13.3506 6.37154
ltoes 0.186627
22
root 0.528112 17.4459 -14.8446 7.25493 -0.841466 -1.88167
lowerback 1.70371 -0.735702 0.506862
upperback 4.55769 -1.04242 1.88191
thorax 3.76093 -0.540755 1.63789
lowerneck -11.8704 0.725514 -1.54711
upperneck 30.4261 1.32756 0.251463
head 11.9137 0.440639 0.540561
rclavicle -8.94531e-015 4.77083e-015
rhumerus -26.2605 -14.2716 -79.0072
rradius 25.8051
rwrist 28.6574
rhand -18.9045 -26.6377
rfingers 7.12502
rthumb 7.39733 -56.4884
lclavicle -8.94531e-015 4.77083e-015
lhumerus -21.3662 1.25306 87.6401
lradius 18.326
lwrist 5.874
lhand -25.7016 -2.88346
lfingers 7.12502
lthumb 0.833925 27.0947
rfemur -19.5663 -3.78573 20.587
rtibia 27.4365
rfoot -13.9417 -0.419573
rtoes 12.9016
lfemur -18.7737 8.5641 -18.1725
ltibia 26.0127
lfoot -13.2423 6.20598
ltoes 0.350273
23
root 0.521877 17.447 -14.8378 7.26117 -0.71667 -1.89876
lowerback 1.67695 -0.757342 0.543798
upperback 4.54393 -1.07225 1.9031
thorax 3.76228 -0.554667 1.63827
lowerneck -11.8443 0.701586 -1.57493
upperneck 30.4115 1.28621 0.295049
head 11.9023 0.424828 0.5559
rclavicle 2.59414e-014 -1.49089e-014
rhumerus -26.2409 -14.4043 -78.9181
rradius 25.7507
rwrist 28.7417
rhand -18.9243 -26.6401
rfingers 7.12502
rthumb 7.37823 -56.4915
lclavicle 2.59414e-014 -1.49089e-014
lhumerus -21.353 1.14554 87.7677
lradius 18.3319
lwrist 5.90046
lhand -25.7645 -3.11462
lfingers 7.12502
lthumb 0.773221 26.8637
rfemur -19.5067 -3.82515 20.6276
rtibia 27.389
rfoot -13.9532 -0.486462
rtoes 12.8728
lfemur -18.7613 8.50369 -18.1279
ltibia 25.9725
lfoot -13.1193 6.04856
ltoes 0.549322
24
root 0.515941 17.448 -14.831 7.26024 -0.587117 -1.90918
lowerback 1.66067 -0.781443 0.572665
upperback 4.53086 -1.1051 1.92268
thorax 3.75862 -0.570335 1.64158
lowerneck -11.8063 0.676837 -1.60752
upperneck 30.3846 1.24489 0.337502
head 11.8835 0.40846 0.571489
rclavicle -2.18663e-015 7.55382e-015
rhumerus -26.2243 -14.5373 -78.8343
rradius 25.6972
rwrist 28.8178
rhand -18.9285 -26.6608
rfingers 7.12502
rthumb 7.3742 -56.5123
lclavicle -2.18663e-015 7.55382e-015
lhumerus -21.348 1.00583 87.8988
lradius 18.3469
lwrist 5.93931
lhand -25.8403 -3.34948
lfingers 7.12502
lthumb 0.699964 26.6291
rfemur -19.4396 -3.85141 20.6586
rtibia 27.3431
rfoot -13.9656 -0.573096
rtoes 12.8315
lfemur -18.7401 8.41612 -18.0893
ltibia 25.9321
lfoot -12.9942 5.90189
ltoes 0.75773
